# xmcd
#
# Track frame offsets:
#	150
#	21893
#	41650
#	59790
#	76667
#	91368
#	109443
#	131498
#	157265
#	180140
#	201967
#	223280
#	237830
#
# Disc length: 3281 seconds
# Revision: 0
# Processed by: cddbd v1.5.2PL0 Copyright (c) Steve Scherf et al.
# Submitted via: dBpowerAMP V12.0
#
DISCID=b80ccf0d
DTITLE=Peter Thorup med Thor Backhausen - Ku' det tænkes?
DYEAR=2004
DGENRE=Blues
TTITLE0=Remote til min brille
TTITLE1=Vinter på øen
TTITLE2=Boogie-ruller
TTITLE3=Teksten
TTITLE4=Brev til fruen
TTITLE5=Knus mit hjerte igen
TTITLE6=Go' mandag
TTITLE7=Lys fra dig
TTITLE8=Regn-inkarnation
TTITLE9=Kom nu!
TTITLE10=Ku' det tænkes?
TTITLE11=Brev fra fruen
TTITLE12=Hyldest til Danmark
EXTD=
EXTT0=
EXTT1=
EXTT2=
EXTT3=
EXTT4=
EXTT5=
EXTT6=
EXTT7=
EXTT8=
EXTT9=
EXTT10=
EXTT11=
EXTT12=
PLAYORDER=
